<svg width="245" height="104" viewBox="0 0 245 104" fill="none" xmlns="http://www.w3.org/2000/svg">
<g clip-path="url(#clip0_41_274)">
<path d="M242.457 98.9851C241.87 98.9851 241.38 98.5308 241.38 97.925V78.44C241.38 77.8342 241.821 77.3799 242.457 77.3799H243.924C244.511 77.3799 245 77.8342 245 78.44V97.9755C245 98.5307 244.511 99.0355 243.924 99.0355H242.457V98.9851Z" fill="#6D6E71"/>
<path d="M125.593 77.7333V76.6732C125.593 75.9161 125.006 75.3103 124.272 75.3103H120.994C120.261 75.3103 119.674 75.9161 119.674 76.6732V77.4304H106.319C104.607 77.4304 102.063 78.5915 102.063 81.8221V99.9947C102.063 101.761 103.189 104.386 106.319 104.386H123.93C125.642 104.386 128.185 103.225 128.185 99.9947V81.8221C128.185 80.4087 127.452 78.44 125.593 77.7333Z" fill="#FF2636"/>
<path d="M123.489 90.1007H121.337C120.897 90.1007 120.554 90.4541 120.554 90.9084C120.554 91.3627 120.897 91.716 121.337 91.716H123.489C123.929 91.716 124.272 91.3627 124.272 90.9084C124.272 90.4541 123.929 90.1007 123.489 90.1007Z" fill="white"/>
<path d="M120.065 88.6368C120.261 89.0406 120.701 89.2425 121.092 89.0406L123.049 88.132C123.44 87.9301 123.636 87.4758 123.44 87.0719C123.245 86.6681 122.804 86.4662 122.413 86.6681L120.456 87.5767C120.065 87.7281 119.918 88.2329 120.065 88.6368Z" fill="white"/>
<path d="M119.87 86.6682L121.288 85.0023C121.582 84.649 121.533 84.1442 121.239 83.8413C120.897 83.5384 120.408 83.5889 120.114 83.8918L118.696 85.5576C118.402 85.911 118.451 86.4158 118.745 86.7186C119.087 87.0215 119.576 87.0215 119.87 86.6682Z" fill="white"/>
<path d="M117.766 96.764C117.619 96.3602 117.179 96.1078 116.788 96.2592C116.25 96.4611 115.712 96.5116 115.125 96.5116C112.141 96.5116 109.695 93.9876 109.695 90.9084C109.695 87.8292 112.141 85.3052 115.125 85.3052C115.712 85.3052 116.25 85.4061 116.788 85.5576C117.179 85.709 117.619 85.4566 117.766 85.0528L118.451 82.9326C118.598 82.5288 118.353 82.0745 117.962 81.9231C117.081 81.6202 116.103 81.4688 115.125 81.4688C110.086 81.4688 105.977 85.709 105.977 90.9084C105.977 96.1078 110.086 100.348 115.125 100.348C116.103 100.348 117.081 100.197 117.962 99.8937C118.353 99.7423 118.598 99.288 118.451 98.8841L117.766 96.764Z" fill="white"/>
<path d="M119.869 95.1486C119.576 94.7953 119.087 94.7953 118.744 95.0982C118.402 95.401 118.402 95.9058 118.695 96.2592L120.114 97.925C120.407 98.2784 120.897 98.2784 121.239 97.9755C121.581 97.6726 121.581 97.1678 121.288 96.8145L119.869 95.1486Z" fill="white"/>
<path d="M123.098 93.6847L121.142 92.7761C120.75 92.5742 120.31 92.7761 120.114 93.1799C119.919 93.5838 120.114 94.0381 120.506 94.24L122.462 95.1487C122.854 95.3506 123.294 95.1486 123.49 94.7448C123.636 94.341 123.49 93.8867 123.098 93.6847Z" fill="white"/>
<path d="M180.918 98.9851C178.668 98.9851 176.76 98.1775 175.195 96.6126C173.679 95.0478 172.896 93.0791 172.896 90.757C172.896 88.435 173.679 86.5167 175.195 84.9519C176.76 83.387 178.668 82.5793 180.918 82.5793C183.169 82.5793 185.076 83.387 186.593 84.9519C188.158 86.4663 188.941 88.435 188.941 90.757C188.941 93.0791 188.158 94.9973 186.593 96.6126C185.076 98.228 183.12 98.9851 180.918 98.9851ZM180.918 86.1634C179.696 86.1634 178.619 86.6177 177.739 87.5263C176.907 88.3845 176.467 89.495 176.467 90.8075C176.467 92.12 176.907 93.2305 177.739 94.0886C178.619 94.9973 179.696 95.4516 180.918 95.4516C182.141 95.4516 183.218 94.9973 184.049 94.0886C184.93 93.18 185.37 92.0695 185.37 90.8075C185.37 89.5455 184.93 88.435 184.049 87.5263C183.169 86.6177 182.141 86.1634 180.918 86.1634Z" fill="#6D6E71"/>
<path d="M197.208 98.9851C195.398 98.9851 193.881 98.3794 192.707 97.1679C191.533 95.9564 190.946 94.341 190.946 92.4733V84.1947C190.946 83.5889 191.387 83.0841 192.022 83.0841H193.49C194.077 83.0841 194.566 83.5889 194.566 84.1947V92.5742C194.566 94.2905 195.642 95.4011 197.257 95.4011C198.92 95.4011 199.996 94.2401 199.996 92.5742V84.2451C199.996 83.6394 200.436 83.1346 201.072 83.1346H202.54C203.127 83.1346 203.616 83.6394 203.616 84.2451V92.5238C203.616 94.442 203.029 96.0068 201.855 97.2183C200.583 98.3794 199.067 98.9851 197.208 98.9851Z" fill="#6D6E71"/>
<path d="M210.562 98.9851C208.655 98.9851 207.04 98.3289 205.719 96.966C205.181 96.4107 205.181 95.8554 205.671 95.2497L206.013 94.8963C206.306 94.543 206.6 94.3915 206.942 94.3915C207.236 94.3915 207.48 94.4925 207.774 94.7449C208.703 95.5526 209.633 95.9059 210.513 95.9059C211.59 95.9059 212.225 95.3002 212.225 94.341C212.225 93.4324 211.638 92.8771 209.731 92.019C206.991 90.858 205.573 89.1922 205.573 87.072C205.573 84.4471 207.725 82.5793 210.66 82.5793C212.079 82.5793 213.302 82.9327 214.427 83.6899C214.72 83.8918 214.867 84.1442 214.916 84.4976C214.965 84.8509 214.867 85.2043 214.671 85.5072L214.378 85.911C214.084 86.2643 213.791 86.4663 213.448 86.4663C213.253 86.4663 213.008 86.4158 212.764 86.2643C212.03 85.81 211.394 85.6081 210.758 85.6081C209.633 85.6081 208.948 86.1129 208.948 86.9711C208.948 87.7282 209.682 88.435 211.247 89.0912C214.28 90.4541 215.601 91.9685 215.601 94.1896C215.601 95.5525 215.112 96.7136 214.133 97.6222C213.302 98.5813 212.079 98.9851 210.562 98.9851Z" fill="#6D6E71"/>
<path d="M235.901 98.9851C235.314 98.9851 234.825 98.5308 234.825 97.925V78.44C234.825 77.8342 235.265 77.3799 235.901 77.3799H237.369C237.956 77.3799 238.445 77.8342 238.445 78.44V97.9755C238.445 98.5307 237.956 99.0355 237.369 99.0355H235.901V98.9851Z" fill="#6D6E71"/>
<path d="M172.798 83.387C172.749 83.387 172.749 83.3365 172.7 83.3365C172.162 83.0336 171.575 82.8822 170.939 82.8822C169.618 82.8822 168.542 83.5384 167.662 84.8004C167.662 84.8004 167.417 85.1033 167.417 84.8004V84.1442C167.417 83.8918 167.319 83.6899 167.124 83.488C166.928 83.286 166.732 83.1851 166.488 83.1851H164.824C164.58 83.1851 164.384 83.286 164.189 83.4375C163.993 83.6394 163.895 83.8413 163.895 84.0937V98.026C163.895 98.2784 163.993 98.5308 164.189 98.6823C164.384 98.8842 164.58 98.9347 164.824 98.9347H166.585C166.83 98.9347 167.075 98.8337 167.221 98.6823C167.417 98.4803 167.515 98.2784 167.515 97.9755V90.9084C167.515 89.495 167.808 88.334 168.395 87.4758C168.982 86.6177 169.716 86.2138 170.548 86.2138C170.743 86.2138 170.988 86.2643 171.233 86.3148C171.526 86.4158 171.82 86.2643 171.966 85.9614L172.994 83.9423C173.14 83.7908 173.043 83.488 172.798 83.387Z" fill="#6D6E71"/>
<path d="M152.938 98.9851C150.834 98.9851 149.024 98.1774 147.557 96.6125C146.138 95.0477 145.404 93.079 145.404 90.8074C145.404 88.4854 146.187 86.5167 147.703 85.0023C149.269 83.4374 151.177 82.6298 153.427 82.6298C155.677 82.6298 157.585 83.4374 159.101 85.0023C160.667 86.5167 161.449 88.4854 161.449 90.8074V97.925C161.449 98.5308 160.96 99.0356 160.373 99.0356H159.15C158.514 99.0356 158.123 98.6317 158.123 97.925L158.074 96.6125C158.074 96.6125 158.074 96.5116 157.976 96.5116C157.927 96.5116 157.878 96.5621 157.78 96.663C156.655 98.1774 155.041 98.9851 152.938 98.9851ZM149.024 90.8074C149.024 92.1199 149.464 93.1799 150.296 94.0381C151.177 94.9467 152.204 95.401 153.476 95.401C154.699 95.401 155.726 94.9467 156.606 94.0381C157.487 93.1295 157.878 92.0694 157.927 90.8074C157.927 89.495 157.487 88.4349 156.606 87.5263C155.726 86.6176 154.699 86.1633 153.476 86.1633C152.253 86.1633 151.177 86.6176 150.296 87.5263C149.416 88.3844 149.024 89.495 149.024 90.8074H148.877H149.024Z" fill="#6D6E71"/>
<path d="M225.091 98.9851C222.841 98.9851 220.933 98.1775 219.367 96.6126C217.851 95.0478 217.068 93.0791 217.068 90.757C217.068 88.4854 217.851 86.5167 219.367 84.9519C220.884 83.387 222.792 82.5793 225.042 82.5793C227.243 82.5793 229.151 83.3365 230.618 84.8509C232.086 86.3653 232.869 88.1826 232.869 90.3532C232.869 91.0094 232.379 91.4637 231.695 91.4637H220.982C220.933 91.4637 220.884 91.4637 220.835 91.5142C220.786 91.5647 220.786 91.6152 220.835 91.7161C220.982 92.7762 221.471 93.6343 222.254 94.3915C223.085 95.0982 224.064 95.4516 225.189 95.4516C226.558 95.4516 227.732 94.8963 228.662 93.7858C228.955 93.4324 229.249 93.281 229.64 93.281C229.836 93.281 230.08 93.3315 230.325 93.4829L231.254 93.9372C231.597 94.0886 231.841 94.3915 231.89 94.7449C231.939 95.0478 231.841 95.3506 231.646 95.603C229.983 97.8746 227.781 98.9851 225.091 98.9851ZM224.993 85.81C223.085 85.81 221.764 86.7187 221.08 88.4854C221.031 88.5359 221.08 88.5864 221.08 88.5864C221.129 88.6369 221.177 88.6369 221.226 88.6369H228.809C228.906 88.6369 228.955 88.6369 228.955 88.5864C228.955 88.5864 228.955 88.5359 228.955 88.435C228.173 86.7187 226.901 85.81 224.993 85.81Z" fill="#6D6E71"/>
<path d="M144.768 97.4707L144.181 95.7039C144.083 95.3506 143.741 95.0982 143.35 95.0982C143.252 95.0982 143.154 95.0982 143.105 95.1487C142.665 95.3001 142.176 95.3506 141.686 95.3506C140.463 95.3506 139.289 94.8962 138.458 94.0381C137.577 93.1799 137.137 92.0189 137.137 90.8074C137.137 88.2835 139.192 86.2643 141.686 86.2643C142.176 86.2643 142.616 86.3148 143.105 86.4662C143.203 86.5167 143.301 86.5167 143.398 86.5167C143.79 86.5167 144.132 86.2643 144.23 85.9109L144.817 84.1441C144.866 83.9422 144.866 83.6898 144.768 83.4879C144.67 83.286 144.475 83.1346 144.23 83.0336C143.398 82.7812 142.567 82.6298 141.686 82.6298C137.137 82.6298 133.468 86.3148 133.468 90.8074C133.468 95.3001 137.137 98.9851 141.686 98.9851C142.567 98.9851 143.398 98.8336 144.23 98.5812C144.475 98.4803 144.621 98.3288 144.719 98.1269C144.817 97.925 144.817 97.6726 144.768 97.4707ZM142.371 82.8822H142.322H142.371ZM141.637 98.7832C141.589 98.7832 141.54 98.7832 141.54 98.7832C141.589 98.7832 141.637 98.7832 141.637 98.7832ZM140.366 98.6822H140.415H140.366ZM140.659 98.7327C140.708 98.7327 140.757 98.7327 140.806 98.7327C140.757 98.7327 140.708 98.7327 140.659 98.7327ZM144.132 98.3793C144.328 98.3288 144.475 98.1774 144.524 98.026C144.475 98.2279 144.328 98.3288 144.132 98.3793ZM144.573 97.925C144.573 97.8745 144.573 97.8241 144.573 97.7736C144.621 97.8745 144.573 97.8745 144.573 97.925Z" fill="#6D6E71"/>
<path d="M74.5229 98.2784C72.9576 98.2784 71.3922 97.4202 70.6584 96.4611H70.6095L70.1693 97.8746H68.6528V80.5096H70.8541V86.9205H70.903C71.8325 85.6585 73.3489 85.1033 74.9632 85.1033C77.7515 85.1033 80.6376 87.2739 80.6376 91.4132V91.817C80.4908 95.5525 78.3874 98.2784 74.5229 98.2784ZM78.2895 91.6656C78.2895 89.0911 77.0666 87.0215 74.4251 87.0215C71.8325 87.0215 70.6584 89.1416 70.6584 91.6656C70.6584 94.1896 71.7835 96.3602 74.4251 96.3602C77.1155 96.3602 78.2895 94.2905 78.2895 91.6656Z" fill="#6D6E71"/>
<path d="M86.2629 97.3193L81.6157 85.81V85.5071H83.9148L86.8499 93.3819C86.9966 93.7352 87.388 94.8458 87.4858 95.2496H87.5347C87.6326 94.8458 87.975 93.7857 88.1217 93.3819L91.0568 85.5071H93.2581V85.81L86.6053 102.367H84.3062V102.064L86.2629 97.3193Z" fill="#6D6E71"/>
<path d="M39.6436 45.871H17.285L13.5854 56.6499H1.7627L21.9497 0H35.0593L55.2463 56.6499H43.3432L39.6436 45.871ZM28.4643 13.1292L20.3412 36.7941H36.5874L28.4643 13.1292Z" fill="#FFBE00"/>
<path d="M104.855 56.6499H93.5149V50.9768C92.1208 52.8678 90.2442 54.3807 87.885 55.5153C85.5795 56.6499 83.0326 57.2172 80.2445 57.2172C77.6709 57.2172 75.2849 56.812 73.0865 56.0016C70.8882 55.1371 68.9848 53.8944 67.3763 52.2735C65.8214 50.6526 64.5882 48.6535 63.6767 46.2762C62.8188 43.8989 62.3898 41.1705 62.3898 38.0908V11.7514H73.6495V36.4699C73.6495 40.0899 74.5342 42.8454 76.3036 44.7364C78.1266 46.6274 80.5394 47.573 83.542 47.573C86.5982 47.573 89.011 46.6274 90.7804 44.7364C92.6034 42.8454 93.5149 40.0899 93.5149 36.4699V11.7514H104.855V56.6499Z" fill="#FFBE00"/>
<path d="M117.734 21.0715H112.426V11.7514H117.734V0.648355H129.074V11.7514H139.047V21.0715H129.074V42.7913C129.074 44.3042 129.423 45.4118 130.12 46.1142C130.817 46.7625 132.05 47.0867 133.819 47.0867H139.047V56.6499H131.969C129.825 56.6499 127.868 56.4068 126.098 55.9205C124.383 55.4342 122.881 54.6508 121.594 53.5702C120.361 52.4356 119.396 51.0038 118.699 49.2749C118.056 47.4919 117.734 45.3037 117.734 42.7103V21.0715Z" fill="#FFBE00"/>
<path d="M190.174 34.2007C190.174 37.7126 189.557 40.9003 188.324 43.7639C187.144 46.6274 185.509 49.0858 183.418 51.1389C181.327 53.138 178.86 54.6778 176.019 55.7584C173.177 56.839 170.148 57.3793 166.93 57.3793C163.713 57.3793 160.711 56.839 157.923 55.7584C155.188 54.6778 152.802 53.138 150.765 51.1389C148.781 49.0858 147.199 46.6274 146.02 43.7639C144.894 40.9003 144.331 37.7126 144.331 34.2007C144.331 30.6347 144.92 27.447 146.1 24.6374C147.28 21.7739 148.888 19.3426 150.926 17.3435C153.017 15.2903 155.456 13.7235 158.244 12.6429C161.033 11.5623 164.035 11.022 167.252 11.022C170.469 11.022 173.472 11.5623 176.26 12.6429C179.048 13.7235 181.461 15.2903 183.498 17.3435C185.589 19.3426 187.225 21.7739 188.404 24.6374C189.584 27.447 190.174 30.6347 190.174 34.2007ZM155.751 34.2007C155.751 36.4159 156.046 38.3609 156.636 40.0358C157.226 41.7108 158.03 43.1155 159.049 44.2501C160.067 45.3307 161.247 46.1412 162.587 46.6815C163.981 47.2218 165.429 47.4919 166.93 47.4919C168.432 47.4919 169.879 47.2218 171.273 46.6815C172.668 46.1412 173.901 45.3307 174.973 44.2501C176.045 43.1155 176.903 41.7108 177.547 40.0358C178.244 38.3609 178.592 36.4159 178.592 34.2007C178.592 31.9314 178.271 29.9864 177.627 28.3655C176.984 26.6906 176.126 25.3128 175.054 24.2322C173.981 23.0976 172.748 22.2601 171.354 21.7199C170.013 21.1796 168.593 20.9094 167.091 20.9094C165.59 20.9094 164.142 21.1796 162.748 21.7199C161.408 22.2601 160.201 23.0976 159.129 24.2322C158.11 25.3128 157.279 26.6906 156.636 28.3655C156.046 29.9864 155.751 31.9314 155.751 34.2007Z" fill="#FFBE00"/>
<path d="M219.907 37.6045L208.889 56.6499H196.181L213.875 28.1223L195.94 0.081048H208.889L221.033 19.0454L231.971 0.081048H244.678L227.065 28.5276L245 56.6499H232.051L219.907 37.6045Z" fill="#FFBE00"/>
</g>
<defs>
<clipPath id="clip0_41_274">
<rect width="245" height="104" fill="white"/>
</clipPath>
</defs>
</svg>
